# Blender 4.4.3
# www.blender.org
mtllib Wall_U.mtl
o shape
v -1.000000 -1.000000 1.000000
v -1.000000 1.000000 1.000000
v -1.000000 -1.000000 -1.000000
v -0.900000 -1.000000 -0.900000
v -1.000000 1.000000 -1.000000
v -0.900000 1.000000 -0.900000
v 1.000000 -1.000000 1.000000
v 1.000000 1.000000 1.000000
v 1.000000 -1.000000 -1.000000
v 0.900000 -1.000000 -0.900000
v 1.000000 1.000000 -1.000000
v 0.900000 1.000000 -0.900000
v -0.900000 1.000000 1.000000
v 0.900000 1.000000 1.000000
v -0.900000 -1.000000 1.000000
v 0.900000 -1.000000 1.000000
vn -1.0000 -0.0000 -0.0000
vn -0.0000 -0.0000 -1.0000
vn 1.0000 -0.0000 -0.0000
vn -0.0000 -0.0000 1.0000
vn -0.0000 -1.0000 -0.0000
vn -0.0000 1.0000 -0.0000
vt 0.375000 0.000000
vt 0.625000 0.000000
vt 0.625000 0.250000
vt 0.375000 0.250000
vt 0.625000 0.500000
vt 0.375000 0.500000
vt 0.625000 0.750000
vt 0.375000 0.750000
vt 0.625000 1.000000
vt 0.375000 1.000000
vt 0.375000 0.987500
vt 0.625000 0.987500
vt 0.375000 0.762500
vt 0.625000 0.762500
vt 0.137500 0.750000
vt 0.125000 0.750000
vt 0.125000 0.500000
vt 0.362500 0.750000
vt 0.362500 0.512500
vt 0.137500 0.512500
vt 0.875000 0.500000
vt 0.875000 0.750000
vt 0.862500 0.750000
vt 0.862500 0.512500
vt 0.637500 0.512500
vt 0.637500 0.750000
vt 0.625000 0.012500
vt 0.375000 0.012500
vt 0.375000 0.737500
vt 0.625000 0.737500
s 0
usemtl wallMaterial
f 1/1/1 2/2/1 5/3/1 3/4/1
f 3/4/2 5/3/2 11/5/2 9/6/2
f 9/6/3 11/5/3 8/7/3 7/8/3
f 2/9/4 1/10/4 15/11/4 13/12/4
f 16/13/4 7/8/4 8/7/4 14/14/4
f 15/15/5 1/16/5 3/17/5 9/6/5 7/8/5 16/18/5 10/19/5 4/20/5
f 8/7/6 11/5/6 5/21/6 2/22/6 13/23/6 6/24/6 12/25/6 14/26/6
f 13/27/3 15/28/3 4/4/3 6/3/3
f 6/3/4 4/4/4 10/6/4 12/5/4
f 16/29/1 14/30/1 12/5/1 10/6/1
