# Blender 4.4.3
# www.blender.org
mtllib Wall_corner2Diagonal.mtl
o shape
v -1.000000 -1.000000 -1.000000
v -1.000000 1.000000 -1.000000
v 1.000000 -1.000000 1.000000
v 1.000000 1.000000 1.000000
v -1.000000 1.000000 -0.900000
v -1.000000 -1.000000 -0.900000
v 0.900000 1.000000 1.000000
v 0.900000 -1.000000 1.000000
v -0.900000 1.000000 -1.000000
v -0.900000 -1.000000 -1.000000
v 1.000000 1.000000 0.900000
v 1.000000 -1.000000 0.900000
v -0.900000 1.000000 -0.900000
v -0.900000 -1.000000 -0.900000
v 0.900000 1.000000 0.900000
v 0.900000 -1.000000 0.900000
vn -1.0000 -0.0000 -0.0000
vn -0.0000 -0.0000 -1.0000
vn 1.0000 -0.0000 -0.0000
vn -0.0000 -0.0000 1.0000
vn -0.0000 -1.0000 -0.0000
vn -0.0000 1.0000 -0.0000
vt 0.625000 0.237500
vt 0.625000 0.250000
vt 0.375000 0.250000
vt 0.375000 0.237500
vt 0.625000 0.262500
vt 0.375000 0.262500
vt 0.625000 0.750000
vt 0.375000 0.750000
vt 0.375000 0.737500
vt 0.625000 0.737500
vt 0.375000 0.762500
vt 0.625000 0.762500
vt 0.137500 0.512500
vt 0.125000 0.512500
vt 0.125000 0.500000
vt 0.137500 0.500000
vt 0.362500 0.750000
vt 0.362500 0.737500
vt 0.862500 0.500000
vt 0.875000 0.500000
vt 0.875000 0.512500
vt 0.862500 0.512500
vt 0.637500 0.737500
vt 0.637500 0.750000
vt 0.375000 0.275000
vt 0.625000 0.275000
vt 0.625000 0.725000
vt 0.375000 0.725000
vt 0.625000 0.225000
vt 0.375000 0.225000
vt 0.375000 0.775000
vt 0.625000 0.775000
s 0
usemtl wallMaterial
f 5/1/1 2/2/1 1/3/1 6/4/1
f 1/3/2 2/2/2 9/5/2 10/6/2
f 4/7/3 3/8/3 12/9/3 11/10/3
f 8/11/4 3/8/4 4/7/4 7/12/4
f 14/13/5 6/14/5 1/15/5 10/16/5
f 12/9/5 3/8/5 8/17/5 16/18/5
f 9/19/6 2/20/6 5/21/6 13/22/6
f 15/23/6 7/24/6 4/7/6 11/10/6
f 5/5/4 6/6/4 14/25/4 13/26/4
f 8/9/1 7/10/1 15/27/1 16/28/1
f 10/4/3 9/1/3 13/29/3 14/30/3
f 12/11/2 16/31/2 15/32/2 11/12/2
