# Blender 4.4.3
# www.blender.org
mtllib Wall_Box.mtl
o shape
v -1.000000 -1.000000 1.000000
v -0.900000 -1.000000 0.900000
v -1.000000 1.000000 1.000000
v -0.900000 1.000000 0.900000
v -1.000000 -1.000000 -1.000000
v -0.900000 -1.000000 -0.900000
v -1.000000 1.000000 -1.000000
v -0.900000 1.000000 -0.900000
v 1.000000 -1.000000 1.000000
v 0.900000 -1.000000 0.900000
v 1.000000 1.000000 1.000000
v 0.900000 1.000000 0.900000
v 1.000000 -1.000000 -1.000000
v 0.900000 -1.000000 -0.900000
v 1.000000 1.000000 -1.000000
v 0.900000 1.000000 -0.900000
vn -1.0000 -0.0000 -0.0000
vn -0.0000 -0.0000 -1.0000
vn 1.0000 -0.0000 -0.0000
vn -0.0000 -0.0000 1.0000
vn -0.0000 -1.0000 -0.0000
vn -0.0000 1.0000 -0.0000
vt 0.375000 0.000000
vt 0.625000 0.000000
vt 0.625000 0.250000
vt 0.375000 0.250000
vt 0.625000 0.500000
vt 0.375000 0.500000
vt 0.625000 0.750000
vt 0.375000 0.750000
vt 0.625000 1.000000
vt 0.375000 1.000000
vt 0.125000 0.500000
vt 0.125000 0.750000
vt 0.137500 0.737500
vt 0.362500 0.737500
vt 0.362500 0.512500
vt 0.137500 0.512500
vt 0.637500 0.512500
vt 0.875000 0.500000
vt 0.875000 0.750000
vt 0.637500 0.737500
vt 0.862500 0.737500
vt 0.862500 0.512500
s 0
usemtl wallMaterial
f 1/1/1 3/2/1 7/3/1 5/4/1
f 5/4/2 7/3/2 15/5/2 13/6/2
f 13/6/3 15/5/3 11/7/3 9/8/3
f 9/8/4 11/7/4 3/9/4 1/10/4
f 5/11/5 13/6/5 9/8/5 1/12/5 2/13/5 10/14/5 14/15/5 6/16/5
f 5/11/5 6/16/5 2/13/5 1/12/5
f 16/17/6 15/5/6 7/18/6 3/19/6 11/7/6 12/20/6 4/21/6 8/22/6
f 16/17/6 12/20/6 11/7/6 15/5/6
f 4/2/3 2/1/3 6/4/3 8/3/3
f 8/3/4 6/4/4 14/6/4 16/5/4
f 12/7/1 16/5/1 14/6/1 10/8/1
f 4/9/2 12/7/2 10/8/2 2/10/2
